<svg width="20" height="23" viewBox="0 0 20 23" fill="none" xmlns="http://www.w3.org/2000/svg">
<path d="M8.97229 22.5472C1.40469 13.3406 0 12.3957 0 9.0121C0 4.37732 4.47714 0.620117 10 0.620117C15.5229 0.620117 20 4.37732 20 9.0121C20 12.3957 18.5953 13.3406 11.0277 22.5472C10.5311 23.1493 9.46885 23.1492 8.97229 22.5472ZM10 12.5088C12.3012 12.5088 14.1667 10.9433 14.1667 9.0121C14.1667 7.08094 12.3012 5.51544 10 5.51544C7.6988 5.51544 5.83333 7.08094 5.83333 9.0121C5.83333 10.9433 7.6988 12.5088 10 12.5088Z" fill="black"/>
</svg>
